<svg width="65" height="18" viewBox="0 0 65 18" fill="none" xmlns="http://www.w3.org/2000/svg">
<path d="M0.68 18V0.248H4.096V5.792C4.89867 5.69867 5.84133 5.624 6.924 5.568C8.02533 5.49333 9.276 5.456 10.676 5.456H12.104C13.0373 5.456 13.756 5.57733 14.26 5.82C14.764 6.06267 15.1187 6.37067 15.324 6.744C15.548 7.11733 15.6787 7.50933 15.716 7.92C15.772 8.33067 15.8 8.704 15.8 9.04V14.416C15.8 14.696 15.772 15.0413 15.716 15.452C15.6787 15.844 15.548 16.236 15.324 16.628C15.1187 17.02 14.764 17.3467 14.26 17.608C13.756 17.8693 13.0373 18 12.104 18H10.676C9.12667 18 7.77333 17.9627 6.616 17.888C5.45867 17.7947 4.49733 17.7013 3.732 17.608L2.976 18H0.68ZM4.964 15.592H11.04C11.936 15.592 12.384 15.2187 12.384 14.472V8.984C12.4027 8.57333 12.3187 8.284 12.132 8.116C11.9453 7.948 11.5813 7.864 11.04 7.864H9.64C8.44533 7.864 7.38133 7.892 6.448 7.948C5.53333 7.98533 4.74933 8.032 4.096 8.088V14.724C4.096 15.116 4.13333 15.3587 4.208 15.452C4.30133 15.5453 4.55333 15.592 4.964 15.592ZM22.3069 18C21.3736 18 20.6549 17.8787 20.1509 17.636C19.6469 17.3933 19.2829 17.0853 19.0589 16.712C18.8536 16.3387 18.7229 15.9467 18.6669 15.536C18.6296 15.1253 18.6109 14.752 18.6109 14.416V9.04C18.6109 8.76 18.6296 8.424 18.6669 8.032C18.7229 7.62133 18.8536 7.22 19.0589 6.828C19.2829 6.436 19.6469 6.10933 20.1509 5.848C20.6736 5.58667 21.3923 5.456 22.3069 5.456H28.3269C29.5589 5.456 30.5203 5.57733 31.2109 5.82C31.9203 6.044 32.4149 6.41733 32.6949 6.94C32.9936 7.46267 33.1429 8.16267 33.1429 9.04V13.184H28.2429C26.5629 13.184 25.1909 13.1467 24.1269 13.072C23.0816 12.9973 22.3816 12.9507 22.0269 12.932V14.472C22.0083 15.2187 22.4563 15.592 23.3709 15.592H24.7989C25.8069 15.592 26.7869 15.5827 27.7389 15.564C28.7096 15.5267 29.5963 15.4893 30.3989 15.452C31.2016 15.396 31.8456 15.3493 32.3309 15.312L33.4509 17.132C33.4509 17.7107 31.6123 18 27.9349 18H22.3069ZM22.0269 10.776H29.7269V8.984C29.7269 8.61067 29.6803 8.34933 29.5869 8.2C29.5123 8.05067 29.2696 7.95733 28.8589 7.92C28.4483 7.88267 27.7483 7.864 26.7589 7.864H23.3709C22.4749 7.864 22.0269 8.23733 22.0269 8.984V10.776ZM39.6702 18C38.7369 18 38.0182 17.8787 37.5142 17.636C37.0102 17.3933 36.6462 17.0853 36.4222 16.712C36.2169 16.3387 36.0862 15.9467 36.0302 15.536C35.9929 15.1253 35.9742 14.752 35.9742 14.416V9.04C35.9742 8.76 35.9929 8.424 36.0302 8.032C36.0862 7.62133 36.2169 7.22 36.4222 6.828C36.6462 6.436 37.0102 6.10933 37.5142 5.848C38.0369 5.58667 38.7556 5.456 39.6702 5.456H45.6902C46.9222 5.456 47.8836 5.57733 48.5742 5.82C49.2836 6.044 49.7782 6.41733 50.0582 6.94C50.3569 7.46267 50.5062 8.16267 50.5062 9.04V13.184H45.6062C43.9262 13.184 42.5542 13.1467 41.4902 13.072C40.4449 12.9973 39.7449 12.9507 39.3902 12.932V14.472C39.3716 15.2187 39.8196 15.592 40.7342 15.592H42.1622C43.1702 15.592 44.1502 15.5827 45.1022 15.564C46.0729 15.5267 46.9596 15.4893 47.7622 15.452C48.5649 15.396 49.2089 15.3493 49.6942 15.312L50.8142 17.132C50.8142 17.7107 48.9756 18 45.2982 18H39.6702ZM39.3902 10.776H47.0902V8.984C47.0902 8.61067 47.0436 8.34933 46.9502 8.2C46.8756 8.05067 46.6329 7.95733 46.2222 7.92C45.8116 7.88267 45.1116 7.864 44.1222 7.864H40.7342C39.8382 7.864 39.3902 8.23733 39.3902 8.984V10.776ZM58.4895 18C57.0708 18 56.1002 17.7013 55.5775 17.104C55.0548 16.5067 54.7935 15.6107 54.7935 14.416V7.864H52.4975V5.456H53.6735C54.0282 5.456 54.2802 5.4 54.4295 5.288C54.5975 5.176 54.7188 4.952 54.7935 4.616L55.3535 1.62H58.2095V5.456H64.0335V7.864H58.2095V14.444C58.2095 14.9107 58.3215 15.2187 58.5455 15.368C58.7695 15.5173 59.1055 15.592 59.5535 15.592H63.5015L63.7815 17.72C63.3895 17.776 62.7922 17.8413 61.9895 17.916C61.1868 17.972 60.3095 18 59.3575 18H58.4895Z" fill="black"/>
</svg>
